<svg width="1024" height="1024" viewBox="0 0 1024 1024" fill="none"
  xmlns="http://www.w3.org/2000/svg">
  <path
    d="M23 62C23 37.1472 43.1472 17 68 17H953.113C979.015 17 999.569 38.8107 998.034 64.6665L963.109 653.035C961.83 674.582 945.432 692.186 924.029 694.988L700.882 724.196C681.841 726.689 666.48 740.989 662.634 759.804L629.157 923.576C625.153 943.169 608.699 957.768 588.769 959.412L71.7003 1002.07C45.4773 1004.24 23 983.538 23 957.226V62Z"
    fill="#161616" />
  <path
    d="M224.086 174.279C224.086 149.426 244.233 129.279 269.086 129.279H868.397C894.297 129.279 914.851 151.088 913.318 176.943L890.438 562.779C889.169 584.188 872.967 601.727 851.725 604.685L680.133 628.584C660.744 631.285 645.325 646.211 641.996 665.502L627.141 751.591C623.666 771.731 607.057 786.999 586.697 788.77L272.986 816.062C246.693 818.35 224.086 797.624 224.086 771.232V174.279Z"
    fill="white" />
  <path
    d="M321.664 694.687C323.484 694.687 324.87 694.276 325.824 693.452C326.82 692.586 327.319 691.286 327.319 689.552C327.319 687.906 326.799 686.649 325.759 685.782C324.762 684.872 323.289 684.417 321.339 684.417C320.645 684.417 320.06 684.439 319.584 684.482C319.15 684.482 318.695 684.526 318.219 684.612V694.687H321.664ZM318.284 715.552C317.807 715.682 317.049 715.812 316.009 715.943C315.012 716.073 314.015 716.138 313.019 716.138C312.022 716.138 311.134 716.051 310.354 715.878C309.617 715.747 308.989 715.487 308.469 715.097C307.949 714.707 307.559 714.166 307.299 713.472C307.039 712.779 306.909 711.869 306.909 710.742V680.127C306.909 679.217 307.147 678.524 307.624 678.047C308.144 677.527 308.837 677.116 309.704 676.812C311.177 676.292 312.845 675.924 314.709 675.707C316.615 675.447 318.522 675.317 320.429 675.317C326.409 675.317 330.98 676.596 334.144 679.152C337.307 681.709 338.889 685.176 338.889 689.552C338.889 691.676 338.542 693.604 337.849 695.337C337.199 697.027 336.202 698.501 334.859 699.757C333.559 700.971 331.89 701.924 329.854 702.617C327.86 703.267 325.542 703.592 322.899 703.592H318.284V715.552ZM379.582 701.252C379.582 703.592 379.17 705.737 378.347 707.688C377.567 709.594 376.419 711.241 374.902 712.627C373.385 713.971 371.544 715.011 369.377 715.747C367.21 716.484 364.762 716.853 362.032 716.853C359.302 716.853 356.854 716.484 354.687 715.747C352.52 715.011 350.679 713.971 349.162 712.627C347.645 711.241 346.475 709.594 345.652 707.688C344.872 705.737 344.482 703.592 344.482 701.252V676.422C344.959 676.336 345.717 676.227 346.757 676.097C347.797 675.924 348.794 675.837 349.747 675.837C350.744 675.837 351.61 675.924 352.347 676.097C353.127 676.227 353.777 676.487 354.297 676.877C354.817 677.267 355.207 677.809 355.467 678.502C355.727 679.196 355.857 680.106 355.857 681.232V701.057C355.857 703.137 356.42 704.762 357.547 705.932C358.717 707.102 360.212 707.688 362.032 707.688C363.895 707.688 365.39 707.102 366.517 705.932C367.644 704.762 368.207 703.137 368.207 701.057V676.422C368.684 676.336 369.442 676.227 370.482 676.097C371.522 675.924 372.519 675.837 373.472 675.837C374.469 675.837 375.335 675.924 376.072 676.097C376.852 676.227 377.502 676.487 378.022 676.877C378.542 677.267 378.932 677.809 379.192 678.502C379.452 679.196 379.582 680.106 379.582 681.232V701.252ZM398.891 707.688C399.498 707.861 400.278 707.991 401.231 708.077C402.185 708.121 403.095 708.142 403.961 708.142C405.695 708.142 407.125 707.796 408.251 707.102C409.421 706.366 410.006 705.239 410.006 703.722C410.006 702.292 409.53 701.274 408.576 700.667C407.623 700.061 406.171 699.757 404.221 699.757H398.891V707.688ZM398.891 691.827H403.636C405.5 691.827 406.843 691.481 407.666 690.787C408.533 690.094 408.966 689.076 408.966 687.732C408.966 686.562 408.468 685.631 407.471 684.937C406.518 684.244 405.066 683.897 403.116 683.897C402.466 683.897 401.708 683.919 400.841 683.962C400.018 684.006 399.368 684.071 398.891 684.157V691.827ZM403.116 716.853C402.38 716.853 401.513 716.831 400.516 716.788C399.52 716.744 398.48 716.658 397.396 716.528C396.356 716.398 395.316 716.224 394.276 716.008C393.236 715.834 392.283 715.574 391.416 715.227C389.033 714.317 387.841 712.736 387.841 710.482V680.127C387.841 679.217 388.08 678.524 388.556 678.047C389.076 677.527 389.77 677.116 390.636 676.812C392.11 676.292 393.951 675.924 396.161 675.707C398.371 675.447 400.646 675.317 402.986 675.317C408.533 675.317 412.801 676.249 415.791 678.112C418.781 679.976 420.276 682.857 420.276 686.757C420.276 688.707 419.713 690.397 418.586 691.827C417.46 693.214 415.943 694.232 414.036 694.882C416.203 695.489 418.001 696.594 419.431 698.197C420.905 699.801 421.641 701.816 421.641 704.242C421.641 708.532 420.038 711.717 416.831 713.797C413.668 715.834 409.096 716.853 403.116 716.853ZM434.13 716.008C432.267 716.008 430.794 715.466 429.71 714.382C428.627 713.299 428.085 711.826 428.085 709.962V676.357C428.562 676.271 429.32 676.162 430.36 676.032C431.4 675.859 432.397 675.772 433.35 675.772C434.347 675.772 435.214 675.859 435.95 676.032C436.73 676.162 437.38 676.422 437.9 676.812C438.42 677.202 438.81 677.744 439.07 678.437C439.33 679.131 439.46 680.041 439.46 681.167V706.842H454.345C454.649 707.319 454.93 707.969 455.19 708.792C455.45 709.572 455.58 710.396 455.58 711.262C455.58 712.996 455.212 714.231 454.475 714.967C453.739 715.661 452.764 716.008 451.55 716.008H434.13ZM472.786 715.552C472.309 715.682 471.551 715.812 470.511 715.943C469.514 716.073 468.517 716.138 467.521 716.138C466.524 716.138 465.636 716.051 464.856 715.878C464.119 715.747 463.491 715.487 462.971 715.097C462.451 714.707 462.061 714.166 461.801 713.472C461.541 712.779 461.411 711.869 461.411 710.742V676.422C461.887 676.336 462.646 676.227 463.686 676.097C464.726 675.924 465.722 675.837 466.676 675.837C467.672 675.837 468.539 675.924 469.276 676.097C470.056 676.227 470.706 676.487 471.226 676.877C471.746 677.267 472.136 677.809 472.396 678.502C472.656 679.196 472.786 680.106 472.786 681.232V715.552ZM492.395 700.147C490.489 699.497 488.755 698.847 487.195 698.197C485.635 697.504 484.292 696.681 483.165 695.727C482.039 694.774 481.15 693.647 480.5 692.347C479.894 691.004 479.59 689.379 479.59 687.472C479.59 683.789 480.999 680.842 483.815 678.632C486.675 676.422 490.662 675.317 495.775 675.317C497.639 675.317 499.372 675.447 500.975 675.707C502.579 675.967 503.944 676.379 505.07 676.942C506.24 677.462 507.15 678.156 507.8 679.022C508.45 679.846 508.775 680.821 508.775 681.947C508.775 683.074 508.515 684.049 507.995 684.872C507.475 685.652 506.847 686.324 506.11 686.887C505.157 686.281 503.879 685.761 502.275 685.327C500.672 684.851 498.917 684.612 497.01 684.612C495.06 684.612 493.63 684.894 492.72 685.457C491.81 685.977 491.355 686.649 491.355 687.472C491.355 688.122 491.637 688.664 492.2 689.097C492.764 689.487 493.609 689.856 494.735 690.202L498.18 691.307C502.254 692.607 505.374 694.276 507.54 696.312C509.75 698.306 510.855 701.036 510.855 704.502C510.855 708.186 509.404 711.176 506.5 713.472C503.597 715.726 499.329 716.853 493.695 716.853C491.702 716.853 489.839 716.679 488.105 716.333C486.415 716.029 484.92 715.574 483.62 714.967C482.364 714.317 481.367 713.537 480.63 712.627C479.937 711.674 479.59 710.591 479.59 709.377C479.59 708.121 479.959 707.059 480.695 706.192C481.432 705.282 482.234 704.589 483.1 704.112C484.314 705.066 485.787 705.889 487.52 706.582C489.297 707.276 491.225 707.622 493.305 707.622C495.429 707.622 496.924 707.297 497.79 706.647C498.657 705.997 499.09 705.239 499.09 704.372C499.09 703.506 498.744 702.856 498.05 702.422C497.357 701.946 496.382 701.491 495.125 701.057L492.395 700.147ZM552.246 715.552C551.769 715.682 551.011 715.812 549.971 715.943C548.974 716.073 547.978 716.138 546.981 716.138C545.984 716.138 545.096 716.051 544.316 715.878C543.579 715.747 542.951 715.487 542.431 715.097C541.911 714.707 541.521 714.166 541.261 713.472C541.001 712.779 540.871 711.869 540.871 710.742V700.602H528.391V715.552C527.914 715.682 527.156 715.812 526.116 715.943C525.119 716.073 524.123 716.138 523.126 716.138C522.129 716.138 521.241 716.051 520.461 715.878C519.724 715.747 519.096 715.487 518.576 715.097C518.056 714.707 517.666 714.166 517.406 713.472C517.146 712.779 517.016 711.869 517.016 710.742V676.422C517.493 676.336 518.251 676.227 519.291 676.097C520.331 675.924 521.328 675.837 522.281 675.837C523.278 675.837 524.144 675.924 524.881 676.097C525.661 676.227 526.311 676.487 526.831 676.877C527.351 677.267 527.741 677.809 528.001 678.502C528.261 679.196 528.391 680.106 528.391 681.232V691.632H540.871V676.422C541.348 676.336 542.106 676.227 543.146 676.097C544.186 675.924 545.183 675.837 546.136 675.837C547.133 675.837 547.999 675.924 548.736 676.097C549.516 676.227 550.166 676.487 550.686 676.877C551.206 677.267 551.596 677.809 551.856 678.502C552.116 679.196 552.246 680.106 552.246 681.232V715.552Z"
    fill="black" />
  <path
    d="M561.484 272.184C557.066 272.184 553.484 275.765 553.484 280.184V435.41C553.484 439.828 549.902 443.41 545.484 443.41H398.43C394.011 443.41 390.43 439.828 390.43 435.41V419.326C390.43 412.985 383.404 409.165 378.081 412.611L313.061 454.713C308.19 457.867 308.192 464.995 313.064 468.146L378.085 510.197C383.408 513.64 390.43 509.819 390.43 503.479V487.455C390.43 483.037 394.011 479.455 398.43 479.455H571.497C581.452 479.455 589.51 471.37 589.51 461.432V280.184C589.51 275.765 585.928 272.184 581.51 272.184H561.484Z"
    fill="black" />
</svg>